# xmcd CD database file
#
# Track frame offsets:
#	150
#	14610
#	30836
#	45829
#	64118
#	80999
#	96062
#	113485
#	127115
#
# Disc length: 1924 seconds
#
# Revision: 2
# Processed by: cddbd v1.5.2PL0 Copyright (c) Steve Scherf et al.
# Submitted via: CDex 1.70beta2
#
DISCID=69078209
DTITLE=Sinan sakic - na eks
DYEAR=2002
DGENRE=Folk
TTITLE0=pijem na eks
TTITLE1=sunce moje
TTITLE2=klosar
TTITLE3=veciti momak
TTITLE4=ne,ne,ne
TTITLE5=trezan
TTITLE6=oce moj
TTITLE7=ruzo ruzice
TTITLE8=oce moj(instr)
EXTD=YEAR: 2002
EXTT0=
EXTT1=
EXTT2=
EXTT3=
EXTT4=
EXTT5=
EXTT6=
EXTT7=
EXTT8=
PLAYORDER=
